#!OML:ASF H:\Dans Jumps\Project 1\Capture day 1\Session 1\subject.ASF
:FULLY-SPECIFIED
:DEGREES
307
root 0.618607 17.0657 8.69439 8.73105 -2.04069 -3.2617
lowerback 13.5239 0.8746 -1.41532
upperback 6.97063 1.00298 1.63604
thorax -0.307361 0.432539 2.36653
lowerneck -10.9427 0.799619 0.936494
upperneck 21.1536 0.993645 -0.378451
head 8.37755 0.50031 -0.181575
rclavicle -2.13694e-015 -1.1778e-014
rhumerus -12.75 1.03386 -84.3103
rradius 59.7035
rwrist 18.2223
rhand -28.1404 -28.2556
rfingers 7.12502
rthumb -1.52152 -58.2299
lclavicle -2.13694e-015 -1.1778e-014
lhumerus -16.4856 -9.5311 79.6348
lradius 32.5991
lwrist 31.5451
lhand -27.4607 -11.5548
lfingers 7.12502
lthumb -0.86501 18.4232
rfemur -36.8286 0.0473095 21.7559
rtibia 43.3566
rfoot -10.2778 0.498749
rtoes 5.45466
lfemur -35.4056 6.41513 -18.2614
ltibia 44.0443
lfoot -8.63107 7.97769
ltoes -6.01884
308
root 0.622272 17.1274 8.75012 9.29158 -1.88437 -3.3422
lowerback 13.4202 0.857861 -1.47186
upperback 7.03593 0.975935 1.67633
thorax -0.183213 0.415156 2.44572
lowerneck -10.9725 0.799295 0.96891
upperneck 20.5924 0.989063 -0.397613
head 8.19453 0.498691 -0.194313
rclavicle 2.65874e-015 8.10048e-015
rhumerus -13.5651 0.774135 -84.5634
rradius 59.6921
rwrist 18.3922
rhand -28.1886 -28.3315
rfingers 7.12502
rthumb -1.56804 -58.3055
lclavicle 2.65874e-015 8.10048e-015
lhumerus -16.8954 -9.29467 79.8189
lradius 32.1922
lwrist 31.2575
lhand -27.4126 -11.5621
lfingers 7.12502
lthumb -0.818631 18.4161
rfemur -36.5696 0.144898 21.7591
rtibia 42.1637
rfoot -9.99668 0.444336
rtoes 6.07178
lfemur -35.1088 6.18201 -18.1449
ltibia 42.7479
lfoot -8.49343 7.78568
ltoes -5.8093
309
root 0.625664 17.1846 8.80568 9.83281 -1.70827 -3.40654
lowerback 13.3338 0.840291 -1.5303
upperback 7.08656 0.947726 1.71681
thorax -0.0835002 0.397451 2.52596
lowerneck -11.0075 0.791095 0.994803
upperneck 20.0548 0.974311 -0.413574
head 8.02135 0.492031 -0.205804
rclavicle 1.00883e-014 9.83984e-015
rhumerus -14.4194 0.483565 -84.7996
rradius 59.5571
rwrist 18.5184
rhand -28.2294 -28.4101
rfingers 7.12502
rthumb -1.60744 -58.3838
lclavicle 1.00883e-014 9.83984e-015
lhumerus -17.3344 -9.0417 80.0294
lradius 31.7624
lwrist 31.0225
lhand -27.3269 -11.5593
lfingers 7.12502
lthumb -0.73585 18.4192
rfemur -36.3224 0.217911 21.7549
rtibia 41.0244
rfoot -9.73329 0.363821
rtoes 6.7026
lfemur -34.8486 5.95343 -18.0382
ltibia 41.5328
lfoot -8.34893 7.55069
ltoes -5.67937
310
root 0.628962 17.2376 8.86138 10.3589 -1.51533 -3.45509
lowerback 13.2544 0.820984 -1.58288
upperback 7.12362 0.918002 1.75134
thorax -0.00141153 0.379523 2.59664
lowerneck -11.0641 0.775744 1.01651
upperneck 19.5593 0.948426 -0.419416
head 7.86686 0.48067 -0.214166
rclavicle 1.39149e-015 1.42131e-014
rhumerus -15.2914 0.150912 -85.0248
rradius 59.2736
rwrist 18.5919
rhand -28.2513 -28.4876
rfingers 7.12502
rthumb -1.62867 -58.4611
lclavicle 1.39149e-015 1.42131e-014
lhumerus -17.7981 -8.76762 80.2535
lradius 31.3098
lwrist 30.8097
lhand -27.2036 -11.5199
lfingers 7.12502
lthumb -0.616769 18.459
rfemur -36.0933 0.256791 21.7469
rtibia 39.9516
rfoot -9.49633 0.267874
rtoes 7.30008
lfemur -34.631 5.75769 -17.955
ltibia 40.4059
lfoot -8.21022 7.2756
ltoes -5.59305
